<svg width="24" height="24" viewBox="0 0 24 24" xmlns="http://www.w3.org/2000/svg"><g fill="none" fill-rule="evenodd"><path d="M3.826 1C2.266 1 1 2.278 1 3.83v16.34C1 21.73 2.26 23 3.826 23H16.03c.372 0 .824-.25 1.018-.576l5.797-9.702c.238-.4.242-1.04 0-1.444l-5.797-9.702c-.19-.318-.643-.576-1.02-.576H3.827z" stroke-opacity=".15" stroke="#000" fill="#FFF"/><path d="M10.29 12.895L9.1 20s4.54-6.175 5.61-8.987c.138-.36.19-1.117.19-2.013l-4.61 3.895z" stroke="#C5141C" stroke-width=".1" fill="#C5141C"/><path d="M10 14c2.76 0 5-2.24 5-5s-2.24-5-5-5-5 2.24-5 5 2.24 5 5 5zm0-3c1.105 0 2-.895 2-2s-.895-2-2-2-2 .895-2 2 .895 2 2 2z" fill="#E00"/></g></svg>